<svg width="290" height="84" viewBox="0 0 290 84" fill="none" xmlns="http://www.w3.org/2000/svg">
<path d="M288.329 74.1977C288.329 78.6672 284.638 82.2876 280.073 82.2876H9.87799C5.31476 82.2876 1.61078 78.6672 1.61078 74.1977V9.68302C1.61078 5.2156 5.31476 1.58252 9.87799 1.58252H280.071C284.638 1.58252 288.327 5.2156 288.327 9.68302L288.329 74.1977Z" fill="black"/>
<path d="M279.201 1.68014C284.173 1.68014 288.219 5.62989 288.219 10.4839V73.3864C288.219 78.2403 284.173 82.1901 279.201 82.1901H10.7385C5.76658 82.1901 1.72085 78.2403 1.72085 73.3864V10.4839C1.72085 5.62989 5.76658 1.68014 10.7385 1.68014H279.201ZM279.201 0.000121266H10.7385C4.83502 0.000121266 0 4.72043 0 10.4839V73.3864C0 79.1498 4.83502 83.8701 10.7385 83.8701H279.201C285.105 83.8701 289.94 79.1498 289.94 73.3864V10.4839C289.94 4.72043 285.105 0.000121266 279.201 0.000121266Z" fill="#A6A6A6"/>
<path d="M64.7061 41.482C64.6438 34.7242 70.3739 31.4365 70.6359 31.2834C67.3907 26.6643 62.3608 26.0332 60.5932 25.9828C56.3687 25.5488 52.2709 28.4507 50.1189 28.4507C47.9239 28.4507 44.61 26.0248 41.0384 26.0961C36.4423 26.1652 32.1426 28.7631 29.7844 32.7973C24.9177 41.0228 28.5473 53.1106 33.21 59.7594C35.5424 63.0156 38.2678 66.6514 41.8352 66.5235C45.3252 66.383 46.6288 64.3513 50.8405 64.3513C55.0135 64.3513 56.2377 66.5235 59.8759 66.4417C63.6215 66.383 65.9797 63.1708 68.2304 59.8852C70.9258 56.153 72.0083 52.4774 72.0512 52.2887C71.9632 52.2593 64.7769 49.5817 64.7061 41.482Z" fill="white"/>
<path d="M57.8334 21.609C59.7105 19.3173 60.9948 16.1994 60.6383 13.0354C57.9215 13.1528 54.5238 14.8701 52.5672 17.1115C50.8362 19.0866 49.2898 22.324 49.6893 25.3685C52.7412 25.5907 55.8747 23.8651 57.8334 21.609Z" fill="white"/>
<path d="M115.213 66.0561H110.336L107.664 57.8599H98.3776L95.8326 66.0561H91.084L100.285 38.1526H105.968L115.213 66.0561ZM106.859 54.4213L104.443 47.1351C104.187 46.3907 103.708 44.6378 103.002 41.8785H102.916C102.634 43.0653 102.181 44.8182 101.558 47.1351L99.1852 54.4213H106.859Z" fill="white"/>
<path d="M138.875 55.7486C138.875 59.1705 137.928 61.8753 136.033 63.8609C134.337 65.6284 132.23 66.5112 129.715 66.5112C127 66.5112 125.05 65.5592 123.862 63.6554H123.776V74.2545H119.198V52.5594C119.198 50.4081 119.14 48.2003 119.028 45.9358H123.055L123.31 49.1249H123.396C124.923 46.722 127.241 45.5227 130.351 45.5227C132.782 45.5227 134.811 46.46 136.435 48.3365C138.063 50.2152 138.875 52.6852 138.875 55.7486ZM134.21 55.9121C134.21 53.9537 133.759 52.3392 132.853 51.0686C131.863 49.7435 130.533 49.0809 128.867 49.0809C127.737 49.0809 126.71 49.4499 125.793 50.1775C124.874 50.9114 124.273 51.8696 123.991 53.0563C123.849 53.6099 123.779 54.0628 123.779 54.4192V57.774C123.779 59.2375 124.238 60.4725 125.157 61.4811C126.077 62.4896 127.271 62.9928 128.74 62.9928C130.464 62.9928 131.807 62.3428 132.767 61.047C133.729 59.7492 134.21 58.0382 134.21 55.9121Z" fill="white"/>
<path d="M162.579 55.7486C162.579 59.1705 161.632 61.8753 159.735 63.8609C158.041 65.6284 155.934 66.5112 153.419 66.5112C150.704 66.5112 148.754 65.5592 147.569 63.6554H147.483V74.2545H142.904V52.5594C142.904 50.4081 142.846 48.2003 142.734 45.9358H146.761L147.017 49.1249H147.103C148.627 46.722 150.945 45.5227 154.057 45.5227C156.486 45.5227 158.515 46.46 160.143 48.3365C161.765 50.2152 162.579 52.6852 162.579 55.7486ZM157.914 55.9121C157.914 53.9537 157.461 52.3392 156.555 51.0686C155.565 49.7435 154.239 49.0809 152.571 49.0809C151.439 49.0809 150.414 49.4499 149.495 50.1775C148.576 50.9114 147.977 51.8696 147.695 53.0563C147.556 53.6099 147.483 54.0628 147.483 54.4192V57.774C147.483 59.2375 147.942 60.4725 148.857 61.4811C149.776 62.4875 150.971 62.9928 152.444 62.9928C154.169 62.9928 155.511 62.3428 156.471 61.047C157.433 59.7492 157.914 58.0382 157.914 55.9121Z" fill="white"/>
<path d="M189.082 58.2312C189.082 60.6048 188.238 62.5359 186.543 64.0267C184.681 65.6558 182.089 66.4694 178.758 66.4694C175.682 66.4694 173.217 65.8907 171.35 64.7312L172.411 61.0052C174.421 62.192 176.627 62.7875 179.03 62.7875C180.755 62.7875 182.097 62.4059 183.062 61.6468C184.022 60.8878 184.501 59.8688 184.501 58.5982C184.501 57.4659 184.105 56.5119 183.313 55.7382C182.525 54.9645 181.208 54.2453 179.37 53.5807C174.366 51.7586 171.866 49.0894 171.866 45.5795C171.866 43.2856 172.742 41.4048 174.497 39.9413C176.245 38.4757 178.577 37.7439 181.494 37.7439C184.095 37.7439 186.255 38.1863 187.98 39.069L186.835 42.7132C185.224 41.8577 183.403 41.43 181.365 41.43C179.754 41.43 178.496 41.8179 177.594 42.5895C176.831 43.2793 176.449 44.1201 176.449 45.1161C176.449 46.219 176.885 47.131 177.761 47.8481C178.524 48.5107 179.909 49.2278 181.919 50.0015C184.378 50.9681 186.184 52.0983 187.346 53.394C188.504 54.6856 189.082 56.3022 189.082 58.2312Z" fill="white"/>
<path d="M204.221 49.2902H199.174V59.059C199.174 61.5437 200.063 62.7849 201.845 62.7849C202.664 62.7849 203.342 62.7157 203.879 62.5774L204.006 65.972C203.104 66.3012 201.916 66.4668 200.445 66.4668C198.637 66.4668 197.224 65.928 196.203 64.8523C195.187 63.7746 194.676 61.9672 194.676 59.428V49.2861H191.67V45.9313H194.676V42.2473L199.174 40.9221V45.9313H204.221V49.2902Z" fill="white"/>
<path d="M226.993 55.8302C226.993 58.9229 226.087 61.4621 224.278 63.4477C222.382 65.492 219.865 66.511 216.727 66.511C213.703 66.511 211.295 65.5318 209.5 63.5735C207.704 61.6151 206.807 59.143 206.807 56.1636C206.807 53.0457 207.73 50.4919 209.584 48.5062C211.433 46.5185 213.928 45.5247 217.066 45.5247C220.09 45.5247 222.524 46.5038 224.36 48.4643C226.117 50.3661 226.993 52.8214 226.993 55.8302ZM222.242 55.9749C222.242 54.1192 221.836 52.5278 221.014 51.2006C220.054 49.5945 218.681 48.7935 216.903 48.7935C215.062 48.7935 213.664 49.5965 212.704 51.2006C211.882 52.5299 211.476 54.1465 211.476 56.0587C211.476 57.9144 211.882 59.5058 212.704 60.8309C213.694 62.437 215.077 63.238 216.862 63.238C218.61 63.238 219.983 62.4203 220.973 60.789C221.817 59.4366 222.242 57.8284 222.242 55.9749Z" fill="white"/>
<path d="M241.876 49.8672C241.423 49.7854 240.94 49.7435 240.433 49.7435C238.822 49.7435 237.577 50.3368 236.7 51.5257C235.938 52.5741 235.556 53.8992 235.556 55.499V66.0562H230.979L231.022 52.2721C231.022 49.9531 230.964 47.8417 230.85 45.9379H234.838L235.006 49.7875H235.133C235.616 48.4644 236.378 47.3993 237.422 46.6004C238.442 45.8812 239.544 45.5227 240.732 45.5227C241.155 45.5227 241.537 45.5521 241.876 45.6045V49.8672Z" fill="white"/>
<path d="M262.355 55.0439C262.355 55.8449 262.301 56.5201 262.187 57.0715H248.451C248.504 59.0592 249.168 60.5794 250.444 61.6277C251.601 62.565 253.098 63.0347 254.937 63.0347C256.971 63.0347 258.826 62.718 260.495 62.0827L261.212 65.1859C259.262 66.0162 256.96 66.4293 254.303 66.4293C251.107 66.4293 248.599 65.5109 246.773 63.6763C244.952 61.8416 244.039 59.3779 244.039 56.2873C244.039 53.2533 244.888 50.7267 246.586 48.7118C248.365 46.5605 250.768 45.4849 253.792 45.4849C256.762 45.4849 259.011 46.5605 260.538 48.7118C261.747 50.4206 262.355 52.5341 262.355 55.0439ZM257.989 53.8844C258.019 52.5593 257.72 51.4145 257.099 50.4479C256.307 49.2045 255.089 48.5839 253.45 48.5839C251.953 48.5839 250.736 49.1898 249.806 50.4059C249.043 51.3725 248.59 52.532 248.451 53.8823H257.989V53.8844Z" fill="white"/>
<path d="M105.345 20.9863C105.345 23.4541 104.587 25.3119 103.073 26.5594C101.67 27.7105 99.6771 28.2872 97.0955 28.2872C95.8155 28.2872 94.7202 28.2326 93.8031 28.1236V14.6394C94.9994 14.4507 96.288 14.3542 97.6797 14.3542C100.139 14.3542 101.992 14.8763 103.242 15.9205C104.643 17.101 105.345 18.7889 105.345 20.9863ZM102.972 21.0471C102.972 19.4473 102.538 18.2207 101.67 17.3652C100.802 16.5118 99.5353 16.0841 97.8666 16.0841C97.1578 16.0841 96.5543 16.1302 96.0539 16.2266V26.4777C96.331 26.5196 96.8378 26.5385 97.5745 26.5385C99.2969 26.5385 100.626 26.0709 101.563 25.1357C102.499 24.2006 102.972 22.8377 102.972 21.0471Z" fill="white"/>
<path d="M117.928 23.1414C117.928 24.6615 117.484 25.907 116.595 26.8841C115.663 27.8884 114.428 28.3896 112.886 28.3896C111.399 28.3896 110.216 27.9094 109.333 26.9449C108.453 25.9825 108.012 24.7685 108.012 23.3049C108.012 21.7743 108.466 20.5184 109.376 19.5434C110.287 18.5684 111.511 18.0798 113.053 18.0798C114.539 18.0798 115.733 18.56 116.638 19.5224C117.497 20.4575 117.928 21.6653 117.928 23.1414ZM115.594 23.2127C115.594 22.3006 115.392 21.5185 114.99 20.8664C114.518 20.078 113.846 19.6838 112.971 19.6838C112.067 19.6838 111.38 20.078 110.907 20.8664C110.504 21.5185 110.304 22.3132 110.304 23.2525C110.304 24.1646 110.506 24.9467 110.907 25.5988C111.395 26.3872 112.074 26.7813 112.95 26.7813C113.809 26.7813 114.483 26.3809 114.969 25.5778C115.385 24.9131 115.594 24.1248 115.594 23.2127Z" fill="white"/>
<path d="M134.801 18.2815L131.633 28.1656H129.571L128.259 23.8735C127.926 22.8021 127.655 21.7369 127.445 20.6802H127.404C127.209 21.7663 126.938 22.8293 126.59 23.8735L125.196 28.1656H123.111L120.132 18.2815H122.445L123.59 22.9803C123.867 24.0916 124.094 25.1504 124.277 26.1527H124.318C124.485 25.3266 124.762 24.274 125.153 23.0013L126.59 18.2836H128.424L129.801 22.9006C130.134 24.0266 130.404 25.1106 130.613 26.1548H130.675C130.827 25.1379 131.057 24.0538 131.362 22.9006L132.591 18.2836H134.801V18.2815Z" fill="white"/>
<path d="M146.469 28.1654H144.218V22.5042C144.218 20.7597 143.54 19.8874 142.178 19.8874C141.51 19.8874 140.971 20.1264 140.552 20.6066C140.138 21.0868 139.927 21.6529 139.927 22.3008V28.1633H137.677V21.1056C137.677 20.2376 137.649 19.2961 137.595 18.2771H139.573L139.678 19.8224H139.74C140.002 19.3423 140.393 18.946 140.907 18.6294C141.517 18.2603 142.2 18.0737 142.947 18.0737C143.892 18.0737 144.678 18.3715 145.303 18.969C146.08 19.7008 146.469 20.7932 146.469 22.2442V28.1654Z" fill="white"/>
<path d="M152.676 28.1654H150.427V13.7461H152.676V28.1654Z" fill="white"/>
<path d="M165.927 23.1414C165.927 24.6615 165.483 25.907 164.594 26.8841C163.661 27.8884 162.424 28.3896 160.885 28.3896C159.396 28.3896 158.213 27.9094 157.332 26.9449C156.452 25.9825 156.011 24.7685 156.011 23.3049C156.011 21.7743 156.465 20.5184 157.375 19.5434C158.286 18.5684 159.51 18.0798 161.05 18.0798C162.538 18.0798 163.73 18.56 164.637 19.5224C165.496 20.4575 165.927 21.6653 165.927 23.1414ZM163.591 23.2127C163.591 22.3006 163.389 21.5185 162.987 20.8664C162.517 20.078 161.842 19.6838 160.97 19.6838C160.064 19.6838 159.377 20.078 158.906 20.8664C158.503 21.5185 158.303 22.3132 158.303 23.2525C158.303 24.1646 158.505 24.9467 158.906 25.5988C159.394 26.3872 160.073 26.7813 160.949 26.7813C161.808 26.7813 162.48 26.3809 162.966 25.5778C163.384 24.9131 163.591 24.1248 163.591 23.2127Z" fill="white"/>
<path d="M176.82 28.1652H174.799L174.632 27.0267H174.57C173.878 27.9346 172.892 28.3896 171.612 28.3896C170.657 28.3896 169.883 28.0897 169.301 27.4942C168.773 26.9533 168.509 26.2802 168.509 25.4814C168.509 24.2736 169.024 23.3532 170.062 22.7157C171.097 22.0783 172.553 21.7659 174.428 21.7806V21.5961C174.428 20.294 173.728 19.644 172.325 19.644C171.327 19.644 170.446 19.8893 169.686 20.3758L169.228 18.9332C170.169 18.365 171.331 18.0798 172.701 18.0798C175.347 18.0798 176.674 19.4427 176.674 22.1685V25.8085C176.674 26.796 176.724 27.5823 176.82 28.1652ZM174.484 24.7685V23.2441C172.001 23.2022 170.76 23.8669 170.76 25.236C170.76 25.7518 170.901 26.1376 171.191 26.3955C171.481 26.6534 171.851 26.7813 172.291 26.7813C172.785 26.7813 173.247 26.6283 173.668 26.3243C174.091 26.0181 174.351 25.6302 174.447 25.1543C174.471 25.0473 174.484 24.9173 174.484 24.7685Z" fill="white"/>
<path d="M189.61 28.1654H187.613L187.507 26.5782H187.445C186.807 27.7859 185.721 28.3898 184.194 28.3898C182.974 28.3898 181.958 27.9222 181.152 26.9871C180.347 26.0519 179.945 24.8379 179.945 23.3471C179.945 21.7473 180.381 20.4515 181.258 19.4618C182.106 18.5393 183.145 18.078 184.383 18.078C185.742 18.078 186.694 18.5246 187.235 19.4199H187.278V13.7461H189.531V25.5026C189.531 26.465 189.556 27.3519 189.61 28.1654ZM187.278 23.9971V22.3491C187.278 22.0639 187.256 21.8333 187.215 21.6571C187.089 21.1288 186.816 20.6842 186.401 20.3257C185.983 19.9672 185.478 19.7868 184.896 19.7868C184.056 19.7868 183.399 20.1118 182.916 20.7639C182.437 21.416 182.194 22.2484 182.194 23.2653C182.194 24.2424 182.424 25.035 182.886 25.6451C183.373 26.2951 184.03 26.6201 184.853 26.6201C185.592 26.6201 186.182 26.3497 186.631 25.8066C187.065 25.3055 187.278 24.7016 187.278 23.9971Z" fill="white"/>
<path d="M208.86 23.1414C208.86 24.6615 208.415 25.907 207.526 26.8841C206.594 27.8884 205.361 28.3896 203.817 28.3896C202.333 28.3896 201.15 27.9094 200.265 26.9449C199.384 25.9825 198.944 24.7685 198.944 23.3049C198.944 21.7743 199.397 20.5184 200.308 19.5434C201.218 18.5684 202.443 18.0798 203.987 18.0798C205.471 18.0798 206.667 18.56 207.569 19.5224C208.428 20.4575 208.86 21.6653 208.86 23.1414ZM206.528 23.2127C206.528 22.3006 206.326 21.5185 205.924 20.8664C205.449 20.078 204.779 19.6838 203.903 19.6838C203.001 19.6838 202.314 20.078 201.839 20.8664C201.435 21.5185 201.236 22.3132 201.236 23.2525C201.236 24.1646 201.438 24.9467 201.839 25.5988C202.327 26.3872 203.005 26.7813 203.882 26.7813C204.741 26.7813 205.417 26.3809 205.903 25.5778C206.317 24.9131 206.528 24.1248 206.528 23.2127Z" fill="white"/>
<path d="M220.962 28.1654H218.714V22.5042C218.714 20.7597 218.035 19.8874 216.671 19.8874C216.003 19.8874 215.464 20.1264 215.047 20.6066C214.631 21.0868 214.422 21.6529 214.422 22.3008V28.1633H212.17V21.1056C212.17 20.2376 212.144 19.2961 212.09 18.2771H214.066L214.171 19.8224H214.233C214.498 19.3423 214.889 18.946 215.4 18.6294C216.012 18.2603 216.693 18.0737 217.442 18.0737C218.385 18.0737 219.171 18.3715 219.796 18.969C220.576 19.7008 220.962 20.7932 220.962 22.2442V28.1654Z" fill="white"/>
<path d="M236.11 19.9274H233.632V24.7289C233.632 25.9492 234.072 26.5594 234.944 26.5594C235.348 26.5594 235.683 26.5258 235.947 26.4566L236.005 28.1236C235.56 28.2871 234.976 28.3689 234.257 28.3689C233.367 28.3689 232.676 28.1047 232.175 27.5763C231.673 27.0479 231.424 26.1589 231.424 24.9113V19.9274H229.944V18.2814H231.424V16.4698L233.629 15.8198V18.2793H236.108V19.9274H236.11Z" fill="white"/>
<path d="M248.025 28.1654H245.773V22.5462C245.773 20.7744 245.094 19.8875 243.734 19.8875C242.691 19.8875 241.978 20.4012 241.587 21.4286C241.52 21.6446 241.481 21.9087 241.481 22.2191V28.1633H239.233V13.7461H241.481V19.703H241.524C242.233 18.6189 243.249 18.078 244.566 18.078C245.498 18.078 246.269 18.3757 246.881 18.9733C247.643 19.7176 248.025 20.8247 248.025 22.2883V28.1654Z" fill="white"/>
<path d="M260.317 22.7557C260.317 23.1498 260.287 23.4811 260.233 23.7516H253.483C253.513 24.7287 253.835 25.473 254.46 25.9888C255.031 26.4501 255.768 26.6808 256.67 26.6808C257.669 26.6808 258.579 26.5256 259.4 26.2132L259.752 27.7396C258.792 28.1464 257.662 28.3498 256.354 28.3498C254.786 28.3498 253.551 27.899 252.658 26.9974C251.76 26.0958 251.316 24.886 251.316 23.3679C251.316 21.8771 251.73 20.6358 252.566 19.6462C253.438 18.5894 254.617 18.061 256.105 18.061C257.561 18.061 258.667 18.5894 259.415 19.6462C260.018 20.4849 260.317 21.5228 260.317 22.7557ZM258.169 22.1874C258.186 21.5353 258.038 20.9734 257.733 20.4996C257.342 19.8894 256.747 19.5833 255.942 19.5833C255.207 19.5833 254.608 19.881 254.151 20.4786C253.777 20.9545 253.556 21.5228 253.483 22.1874H258.169Z" fill="white"/>
</svg>
