<svg width="290" height="84" viewBox="0 0 290 84" fill="none" xmlns="http://www.w3.org/2000/svg">
<path d="M279.199 83.875H10.7384C4.83497 83.875 0 79.1544 0 73.3906V10.4844C0 4.72063 4.83497 4.37024e-05 10.7384 4.37024e-05H279.199C285.102 4.37024e-05 289.937 4.72063 289.937 10.4844V73.3906C289.937 79.1544 285.102 83.875 279.199 83.875Z" fill="black"/>
<path d="M279.199 1.68017C284.171 1.68017 288.217 5.63015 288.217 10.4844V73.3906C288.217 78.2449 284.171 82.1949 279.199 82.1949H10.7384C5.76653 82.1949 1.72083 78.2449 1.72083 73.3906V10.4844C1.72083 5.63015 5.76653 1.68017 10.7384 1.68017H279.199ZM279.199 4.37024e-05H10.7384C4.83497 4.37024e-05 0 4.72063 0 10.4844V73.3906C0 79.1544 4.83497 83.875 10.7384 83.875H279.199C285.102 83.875 289.937 79.1544 289.937 73.3906V10.4844C289.937 4.72063 285.102 4.37024e-05 279.199 4.37024e-05Z" fill="#A6A6A6"/>
<path d="M101.838 21.4798C101.838 23.2307 101.301 24.633 100.243 25.6788C99.0272 26.9186 97.4433 27.5424 95.5023 27.5424C93.6472 27.5424 92.0633 26.9081 90.764 25.6579C89.4619 24.3892 88.8123 22.8323 88.8123 20.9687C88.8123 19.1051 89.4619 17.5482 90.764 16.2901C92.0633 15.0293 93.6472 14.395 95.5023 14.395C96.4258 14.395 97.3063 14.5811 98.1466 14.9271C98.9842 15.2757 99.6661 15.7475 100.16 16.3294L99.0379 17.4355C98.1762 16.4421 97.003 15.952 95.5023 15.952C94.1493 15.952 92.9761 16.4133 91.9801 17.3437C90.9948 18.2769 90.5009 19.4852 90.5009 20.9687C90.5009 22.4523 90.9948 23.6711 91.9801 24.6042C92.9761 25.5242 94.1493 25.996 95.5023 25.996C96.9386 25.996 98.1466 25.5242 99.0997 24.5937C99.7279 23.9777 100.085 23.1285 100.179 22.0434H95.5023V20.5284H101.741C101.816 20.856 101.838 21.1732 101.838 21.4798Z" fill="white" stroke="white" stroke-width="0.16" stroke-miterlimit="10"/>
<path d="M111.736 16.2272H105.876V20.2112H111.159V21.7262H105.876V25.7103H111.736V27.2541H104.216V14.6833H111.736V16.2272Z" fill="white" stroke="white" stroke-width="0.16" stroke-miterlimit="10"/>
<path d="M118.721 27.2541H117.062V16.2272H113.467V14.6833H122.319V16.2272H118.721V27.2541Z" fill="white" stroke="white" stroke-width="0.16" stroke-miterlimit="10"/>
<path d="M128.724 27.2541V14.6833H130.381V27.2541H128.724Z" fill="white" stroke="white" stroke-width="0.16" stroke-miterlimit="10"/>
<path d="M137.723 27.2541H136.077V16.2272H132.469V14.6833H141.331V16.2272H137.723V27.2541Z" fill="white" stroke="white" stroke-width="0.16" stroke-miterlimit="10"/>
<path d="M158.088 25.6369C156.818 26.9081 155.245 27.5424 153.369 27.5424C151.481 27.5424 149.908 26.9081 148.638 25.6369C147.371 24.3683 146.74 22.8113 146.74 20.9687C146.74 19.1261 147.371 17.5692 148.638 16.3006C149.908 15.0293 151.481 14.395 153.369 14.395C155.235 14.395 156.808 15.0293 158.078 16.311C159.355 17.5901 159.986 19.1366 159.986 20.9687C159.986 22.8113 159.355 24.3683 158.088 25.6369ZM149.865 24.5832C150.821 25.5242 151.984 25.996 153.369 25.996C154.743 25.996 155.916 25.5242 156.861 24.5832C157.814 23.6422 158.298 22.4339 158.298 20.9687C158.298 19.5035 157.814 18.2952 156.861 17.3542C155.916 16.4133 154.743 15.9415 153.369 15.9415C151.984 15.9415 150.821 16.4133 149.865 17.3542C148.912 18.2952 148.429 19.5035 148.429 20.9687C148.429 22.4339 148.912 23.6422 149.865 24.5832Z" fill="white" stroke="white" stroke-width="0.16" stroke-miterlimit="10"/>
<path d="M162.314 27.2541V14.6833H164.327L170.588 24.46H170.66L170.588 22.0434V14.6833H172.244V27.2541H170.515L163.96 16.9952H163.887L163.96 19.4223V27.2541H162.314Z" fill="white" stroke="white" stroke-width="0.16" stroke-miterlimit="10"/>
<path d="M146.332 45.6126C141.288 45.6126 137.167 49.3607 137.167 54.5322C137.167 59.6616 141.288 63.4491 146.332 63.4491C151.388 63.4491 155.508 59.6616 155.508 54.5322C155.508 49.3607 151.388 45.6126 146.332 45.6126ZM146.332 59.9368C143.565 59.9368 141.183 57.7063 141.183 54.5322C141.183 51.3161 143.565 49.1248 146.332 49.1248C149.1 49.1248 151.492 51.3161 151.492 54.5322C151.492 57.7063 149.1 59.9368 146.332 59.9368ZM126.335 45.6126C121.28 45.6126 117.17 49.3607 117.17 54.5322C117.17 59.6616 121.28 63.4491 126.335 63.4491C131.387 63.4491 135.5 59.6616 135.5 54.5322C135.5 49.3607 131.387 45.6126 126.335 45.6126ZM126.335 59.9368C123.564 59.9368 121.175 57.7063 121.175 54.5322C121.175 51.3161 123.564 49.1248 126.335 49.1248C129.103 49.1248 131.484 51.3161 131.484 54.5322C131.484 57.7063 129.103 59.9368 126.335 59.9368ZM102.539 48.3464V52.1365H111.808C111.537 54.2543 110.812 55.8112 109.701 56.8964C108.348 58.2069 106.241 59.6616 102.539 59.6616C96.8337 59.6616 92.3666 55.1665 92.3666 49.5966C92.3666 44.0268 96.8337 39.5316 102.539 39.5316C105.623 39.5316 107.867 40.7085 109.524 42.234L112.259 39.5631C109.943 37.4033 106.861 35.7442 102.539 35.7442C94.7156 35.7442 88.141 41.9588 88.141 49.5966C88.141 57.2345 94.7156 63.4491 102.539 63.4491C106.767 63.4491 109.943 62.0966 112.439 59.5594C114.998 57.0615 115.795 53.5492 115.795 50.7132C115.795 49.8325 115.72 49.0226 115.586 48.3464H102.539ZM199.845 51.2846C199.09 49.29 196.763 45.6126 192.022 45.6126C187.324 45.6126 183.412 49.2271 183.412 54.5322C183.412 59.528 187.283 63.4491 192.473 63.4491C196.669 63.4491 199.09 60.9512 200.086 59.4965L196.972 57.4704C195.933 58.9539 194.518 59.9368 192.473 59.9368C190.441 59.9368 188.983 59.0273 188.049 57.2345L200.266 52.299L199.845 51.2846ZM187.388 54.2543C187.283 50.8154 190.124 49.0541 192.159 49.0541C193.753 49.0541 195.106 49.8325 195.557 50.9465L187.388 54.2543ZM177.458 62.9065H181.474V36.6956H177.458V62.9065ZM170.88 47.5994H170.746C169.844 46.5562 168.123 45.6126 165.944 45.6126C161.369 45.6126 157.186 49.5337 157.186 54.561C157.186 59.5594 161.369 63.4491 165.944 63.4491C168.123 63.4491 169.844 62.4976 170.746 61.423H170.88V62.7021C170.88 66.1121 169.015 67.9443 166.005 67.9443C163.552 67.9443 162.029 66.2144 161.401 64.7597L157.908 66.1829C158.915 68.5471 161.581 71.4565 166.005 71.4565C170.714 71.4565 174.687 68.7516 174.687 62.17V46.1551H170.88V47.5994ZM166.287 59.9368C163.519 59.9368 161.202 57.6748 161.202 54.561C161.202 51.4183 163.519 49.1248 166.287 49.1248C169.015 49.1248 171.165 51.4183 171.165 54.561C171.165 57.6748 169.015 59.9368 166.287 59.9368ZM218.648 36.6956H209.042V62.9065H213.048V52.9752H218.648C223.096 52.9752 227.459 49.8325 227.459 44.8341C227.459 39.8383 223.085 36.6956 218.648 36.6956ZM218.752 49.3293H213.048V40.3416H218.752C221.743 40.3416 223.45 42.7661 223.45 44.8341C223.45 46.8628 221.743 49.3293 218.752 49.3293ZM243.512 45.5628C240.618 45.5628 237.609 46.8104 236.371 49.5757L239.926 51.0304C240.691 49.5757 242.098 49.1039 243.585 49.1039C245.663 49.1039 247.77 50.3227 247.802 52.4746V52.7498C247.078 52.3409 245.526 51.7354 243.617 51.7354C239.789 51.7354 235.888 53.793 235.888 57.6329C235.888 61.1452 239.024 63.4072 242.549 63.4072C245.244 63.4072 246.731 62.2198 247.666 60.8385H247.802V62.8646H251.671V52.8101C251.671 48.1629 248.117 45.5628 243.512 45.5628ZM243.029 59.9264C241.719 59.9264 239.894 59.2921 239.894 57.7063C239.894 55.6776 242.17 54.8991 244.141 54.8991C245.904 54.8991 246.731 55.2792 247.802 55.7798C247.488 58.2069 245.349 59.9264 243.029 59.9264ZM265.765 46.1368L261.161 57.4992H261.024L256.264 46.1368H251.945L259.097 62.0154L255.016 70.8511H259.201L270.222 46.1368H265.765ZM229.66 62.9065H233.676V36.6956H229.66V62.9065Z" fill="white"/>
<path d="M22.411 15.8079C21.7801 16.4526 21.415 17.4565 21.415 18.7566V65.129C21.415 66.429 21.7801 67.4329 22.411 68.0777L22.5667 68.2192L49.1819 42.2442V41.6309L22.5667 15.6558L22.411 15.8079Z" fill="url(#paint0_linear_1016_1168)"/>
<path d="M58.0438 50.907L49.1819 42.2443V41.6309L58.0545 32.9682L58.2532 33.0809L68.7607 38.9181C71.7594 40.5746 71.7594 43.3006 68.7607 44.9676L58.2532 50.7943L58.0438 50.907Z" fill="url(#paint1_linear_1016_1168)"/>
<path d="M58.2532 50.7944L49.1819 41.9377L22.411 68.0779C23.407 69.1001 25.0312 69.2233 26.8782 68.2011L58.2532 50.7944Z" fill="url(#paint2_linear_1016_1168)"/>
<path d="M58.2532 33.0808L26.8782 15.6742C25.0312 14.6624 23.407 14.7856 22.411 15.8078L49.1819 41.9375L58.2532 33.0808Z" fill="url(#paint3_linear_1016_1168)"/>
<defs>
<linearGradient id="paint0_linear_1016_1168" x1="46.8188" y1="65.6119" x2="11.6383" y2="29.5789" gradientUnits="userSpaceOnUse">
<stop stop-color="#00A0FF"/>
<stop offset="0.0066" stop-color="#00A1FF"/>
<stop offset="0.2601" stop-color="#00BEFF"/>
<stop offset="0.5122" stop-color="#00D2FF"/>
<stop offset="0.7604" stop-color="#00DFFF"/>
<stop offset="1" stop-color="#00E3FF"/>
</linearGradient>
<linearGradient id="paint1_linear_1016_1168" x1="72.6655" y1="41.9347" x2="20.6982" y2="41.9347" gradientUnits="userSpaceOnUse">
<stop stop-color="#FFE000"/>
<stop offset="0.4087" stop-color="#FFBD00"/>
<stop offset="0.7754" stop-color="#FFA500"/>
<stop offset="1" stop-color="#FF9C00"/>
</linearGradient>
<linearGradient id="paint2_linear_1016_1168" x1="53.3205" y1="37.1231" x2="5.61286" y2="-11.7405" gradientUnits="userSpaceOnUse">
<stop stop-color="#FF3A44"/>
<stop offset="1" stop-color="#C31162"/>
</linearGradient>
<linearGradient id="paint3_linear_1016_1168" x1="15.6722" y1="83.5055" x2="36.9758" y2="61.6859" gradientUnits="userSpaceOnUse">
<stop stop-color="#32A071"/>
<stop offset="0.0685" stop-color="#2DA771"/>
<stop offset="0.4762" stop-color="#15CF74"/>
<stop offset="0.8009" stop-color="#06E775"/>
<stop offset="1" stop-color="#00F076"/>
</linearGradient>
</defs>
</svg>
