<svg width="136" height="127" viewBox="0 0 136 127" fill="none" xmlns="http://www.w3.org/2000/svg">
<path d="M44.4424 26.0214C57.5098 13.81 77.8036 13.81 90.8709 26.0214L104.099 38.3834C118.48 51.8223 118.48 74.6273 104.099 88.0663L90.8709 100.428C77.8036 112.64 57.5098 112.64 44.4424 100.428L31.214 88.0663C16.833 74.6273 16.833 51.8223 31.214 38.3833L44.4424 26.0214Z" fill="#FCFCFC"/>
<path d="M63.2456 31.518C81.6627 28.9316 98.6162 40.6351 101.384 57.8458C104.23 75.5473 91.0099 92.2716 72.0675 94.9317C53.6505 97.518 36.6969 85.8146 33.9293 68.6039C31.0828 50.9024 44.3033 34.1781 63.2456 31.518Z" fill="#E4357D" fill-opacity="0.8"/>
<g clip-path="url(#clip0_1014_1007)">
<path d="M80.3743 51.7634H57.275C52.6205 51.7634 50.0565 53.3054 50.0565 56.1044V67.6805C50.0565 70.4795 52.6205 72.0215 57.275 72.0215H80.3743C85.0289 72.0215 87.5929 70.4795 87.5929 67.6805V56.1044C87.5929 53.3054 85.0289 51.7634 80.3743 51.7634ZM57.275 53.4998H80.3743C83.41 53.4998 84.7055 54.2789 84.7055 56.1044V64.4971L75.9662 59.2415C75.2154 58.79 73.9836 58.79 73.2329 59.2415L63.7236 64.96C63.3578 65.1799 62.7419 65.1799 62.3762 64.96L60.5666 63.8719C59.8159 63.4204 58.5841 63.4204 57.8334 63.8719L52.9439 66.8123V56.1044C52.9439 54.2789 54.2394 53.4998 57.275 53.4998ZM58.7188 58.4196C58.7188 57.6209 59.7853 56.9726 61.1115 56.9726H61.1308C62.4571 56.9726 63.533 57.6209 63.533 58.4196C63.533 59.2184 62.459 59.8666 61.1308 59.8666C59.8045 59.8666 58.7188 59.2184 58.7188 58.4196Z" fill="white"/>
</g>
<defs>
<clipPath id="clip0_1014_1007">
<rect width="39.5516" height="46.641" fill="white" transform="translate(48.027 48.4011)"/>
</clipPath>
</defs>
</svg>
