<svg width="136" height="127" viewBox="0 0 136 127" fill="none" xmlns="http://www.w3.org/2000/svg">
<path d="M44.9221 26.0214C57.9894 13.81 78.2832 13.81 91.3505 26.0214L104.579 38.3834C118.96 51.8223 118.96 74.6273 104.579 88.0663L91.3505 100.428C78.2832 112.64 57.9894 112.64 44.922 100.428L31.6936 88.0663C17.3126 74.6273 17.3126 51.8223 31.6936 38.3833L44.9221 26.0214Z" fill="white"/>
<path d="M63.7252 31.518C82.1423 28.9316 99.0958 40.6351 101.863 57.8458C104.71 75.5473 91.4895 92.2716 72.5471 94.9317C54.1301 97.518 37.1766 85.8146 34.4089 68.6039C31.5624 50.9024 44.7829 34.1781 63.7252 31.518Z" fill="#E4357D" fill-opacity="0.8"/>
<path d="M74.8026 46.3693H62.4116C55.2038 46.3693 49.3323 52.3379 49.3323 59.6752C49.3323 65.9099 53.5436 71.2703 59.4556 72.6769V81.0786C59.4556 81.3828 59.6176 81.6489 59.901 81.763C60.0225 81.801 60.1035 81.839 60.225 81.839C60.4274 81.839 60.5894 81.763 60.7514 81.6489L71.1987 73.0191H74.8026C82.0104 73.0191 87.8414 67.0504 87.8414 59.6752C87.8414 52.2999 82.0104 46.3693 74.8026 46.3693ZM74.8026 71.5364H70.8747C70.6722 71.5364 70.5103 71.6125 70.3483 71.7265L61.0348 79.4439V72.0687C61.0348 71.7265 60.7514 71.4224 60.3869 71.3463C54.9204 70.3579 50.9115 65.4537 50.9115 59.6752C50.9115 53.1743 56.0542 47.8519 62.4116 47.8519H74.8431C81.16 47.8519 86.3027 53.1743 86.3027 59.7132C86.3027 66.2141 81.16 71.5364 74.8026 71.5364Z" fill="white"/>
<path d="M57.7953 62.3744C57.5928 62.3744 57.4713 62.2223 57.4713 62.0703V58.5347C57.4713 58.3446 57.6333 58.2306 57.7953 58.2306C57.9977 58.2306 58.1192 58.3826 58.1192 58.5347V62.0703C58.1597 62.2223 57.9977 62.3744 57.7953 62.3744Z" fill="white"/>
<path d="M64.4361 62.3744C64.2337 62.3744 64.1122 62.2223 64.1122 62.0703V58.5347C64.1122 58.3446 64.2742 58.2306 64.4361 58.2306C64.5981 58.2306 64.7601 58.3826 64.7601 58.5347V62.0703C64.8006 62.2223 64.6386 62.3744 64.4361 62.3744Z" fill="white"/>
<path d="M71.1175 62.9826C70.9151 62.9826 70.7936 62.8306 70.7936 62.6785V57.8884C70.7936 57.6983 70.9556 57.5843 71.1175 57.5843C71.32 57.5843 71.4415 57.7363 71.4415 57.8884V62.6785C71.4415 62.8306 71.2795 62.9826 71.1175 62.9826Z" fill="white"/>
<path d="M72.7778 61.8801C72.5753 61.8801 72.4539 61.7281 72.4539 61.576V58.9909C72.4539 58.8008 72.6158 58.6867 72.7778 58.6867C72.9803 58.6867 73.1018 58.8388 73.1018 58.9909V61.576C73.1018 61.7661 72.9398 61.8801 72.7778 61.8801Z" fill="white"/>
<path d="M79.4187 61.8801C79.2162 61.8801 79.0947 61.7281 79.0947 61.576V58.9909C79.0947 58.8008 79.2567 58.6867 79.4187 58.6867C79.6211 58.6867 79.7426 58.8388 79.7426 58.9909V61.576C79.7426 61.7661 79.5806 61.8801 79.4187 61.8801Z" fill="white"/>
<path d="M59.4554 63.5529C59.2529 63.5529 59.1315 63.4008 59.1315 63.2488V57.2801C59.1315 57.09 59.2934 56.976 59.4554 56.976C59.6174 56.976 59.7794 57.1281 59.7794 57.2801V63.2488C59.8199 63.4388 59.6579 63.5529 59.4554 63.5529Z" fill="white"/>
<path d="M66.0964 63.5529C65.8939 63.5529 65.7725 63.4008 65.7725 63.2488V57.2801C65.7725 57.09 65.9344 56.976 66.0964 56.976C66.2989 56.976 66.4204 57.1281 66.4204 57.2801V63.2488C66.4608 63.4388 66.2989 63.5529 66.0964 63.5529Z" fill="white"/>
<path d="M67.7566 64.5794C67.5541 64.5794 67.4326 64.4273 67.4326 64.2752V56.2917C67.4326 56.1016 67.5946 55.9875 67.7566 55.9875C67.959 55.9875 68.0805 56.1396 68.0805 56.2917V64.2752C68.121 64.4653 67.959 64.5794 67.7566 64.5794Z" fill="white"/>
<path d="M76.0982 63.5529C75.8958 63.5529 75.7743 63.4008 75.7743 63.2488V57.2801C75.7743 57.09 75.9363 56.976 76.0982 56.976C76.3007 56.976 76.4222 57.1281 76.4222 57.2801V63.2488C76.4222 63.4388 76.2602 63.5529 76.0982 63.5529Z" fill="white"/>
<path d="M77.7585 64.5794C77.556 64.5794 77.4346 64.4273 77.4346 64.2752V56.2917C77.4346 56.1016 77.5965 55.9875 77.7585 55.9875C77.9205 55.9875 78.0825 56.1396 78.0825 56.2917V64.2752C78.0825 64.4653 77.9205 64.5794 77.7585 64.5794Z" fill="white"/>
<path d="M62.776 64.3132C62.5735 64.3132 62.452 64.1612 62.452 64.0091V56.5578C62.452 56.3677 62.614 56.2537 62.776 56.2537C62.9784 56.2537 63.0999 56.4057 63.0999 56.5578V64.0091C63.1404 64.1612 62.9784 64.3132 62.776 64.3132Z" fill="white"/>
<path d="M61.1157 66.5562C60.9132 66.5562 60.7917 66.4042 60.7917 66.2521V54.3148C60.7917 54.1247 60.9537 54.0107 61.1157 54.0107C61.3182 54.0107 61.4396 54.1627 61.4396 54.3148V66.2141C61.4801 66.4042 61.3182 66.5562 61.1157 66.5562Z" fill="white"/>
<path d="M69.4574 65.986C69.2549 65.986 69.1334 65.8339 69.1334 65.6818V54.8851C69.1334 54.695 69.2954 54.5809 69.4574 54.5809C69.6598 54.5809 69.7813 54.733 69.7813 54.8851V65.6818C69.7813 65.8339 69.6193 65.986 69.4574 65.986Z" fill="white"/>
<path d="M74.4381 65.986C74.2356 65.986 74.1141 65.8339 74.1141 65.6818V54.8851C74.1141 54.695 74.2761 54.5809 74.4381 54.5809C74.6001 54.5809 74.762 54.733 74.762 54.8851V65.6818C74.762 65.8339 74.6001 65.986 74.4381 65.986Z" fill="white"/>
<path d="M79.1758 60.5116H57.9978C57.7953 60.5116 57.6738 60.3595 57.6738 60.2074C57.6738 60.0554 57.8358 59.9033 57.9978 59.9033H79.1758C79.3782 59.9033 79.4997 60.0554 79.4997 60.2074C79.4997 60.3595 79.3782 60.5116 79.1758 60.5116Z" fill="white"/>
</svg>
