<svg width="137" height="127" viewBox="0 0 137 127" fill="none" xmlns="http://www.w3.org/2000/svg">
<path d="M45.4018 26.0214C58.4691 13.81 78.7629 13.81 91.8303 26.0214L105.059 38.3834C119.44 51.8223 119.44 74.6273 105.059 88.0663L91.8303 100.428C78.7629 112.64 58.4691 112.64 45.4018 100.428L32.1733 88.0663C17.7923 74.6273 17.7923 51.8223 32.1733 38.3833L45.4018 26.0214Z" fill="white"/>
<path d="M64.2049 31.518C82.622 28.9316 99.5755 40.6351 102.343 57.8458C105.19 75.5473 91.9692 92.2716 73.0269 94.9317C54.6098 97.518 37.6563 85.8146 34.8887 68.6039C32.0421 50.9024 45.2626 34.1781 64.2049 31.518Z" fill="#E4357D" fill-opacity="0.8"/>
<path d="M72.504 51.925H64.7281C63.288 51.925 62.1166 50.7436 62.1166 49.2911C62.1166 47.839 63.288 46.6579 64.7281 46.6579H72.504C73.9437 46.6579 75.1148 47.839 75.1148 49.2911C75.1148 50.7433 73.9437 51.925 72.504 51.925ZM64.7281 47.8983C64.0239 47.8983 63.4507 48.5233 63.4507 49.2911C63.4507 50.0596 64.0239 50.6846 64.7281 50.6846H72.504C73.2082 50.6846 73.7806 50.0596 73.7806 49.2911C73.7806 48.523 73.2078 47.8983 72.504 47.8983H64.7281Z" fill="white"/>
<path d="M77.6172 75.8042H59.6142C57.6759 75.8042 56.0985 74.3387 56.0985 72.5369V51.9389C56.0985 50.1373 57.6755 48.6716 59.6142 48.6716H63.1591V49.9119H59.6142C58.4114 49.9119 57.433 50.8213 57.433 51.9389V72.5369C57.433 73.6541 58.4117 74.5638 59.6142 74.5638H77.6172C78.82 74.5638 79.7991 73.6541 79.7991 72.5369V51.9389C79.7991 50.8213 78.82 49.9119 77.6172 49.9119H74.0723V48.6716H77.6172C79.5559 48.6716 81.1333 50.1373 81.1333 51.9389V72.5369C81.1333 74.3387 79.5559 75.8042 77.6172 75.8042Z" fill="white"/>
<path d="M75.7525 60.9778H61.479C61.1107 60.9778 60.8118 61.2554 60.8118 61.598C60.8118 61.9409 61.1104 62.2181 61.479 62.2181H75.7532C76.1218 62.2181 76.4201 61.9409 76.4201 61.598C76.4201 61.2557 76.1215 60.9778 75.7525 60.9778Z" fill="white"/>
<path d="M75.7525 65.1749H61.479C61.1107 65.1749 60.8118 65.4524 60.8118 65.795C60.8118 66.1377 61.1104 66.4149 61.479 66.4149H75.7532C76.1218 66.4149 76.4201 66.1377 76.4201 65.795C76.4201 65.4524 76.1215 65.1749 75.7525 65.1749Z" fill="white"/>
<path d="M75.7525 69.3722H61.479C61.1107 69.3722 60.8118 69.6498 60.8118 69.9927C60.8118 70.335 61.1104 70.6126 61.479 70.6126H75.7532C76.1218 70.6126 76.4201 70.335 76.4201 69.9927C76.4201 69.6498 76.1215 69.3722 75.7525 69.3722Z" fill="white"/>
<path d="M71.7853 54.62H70.2567V53.1993C70.2567 52.9597 70.047 52.7654 69.7895 52.7654H67.4421C67.1839 52.7654 66.9752 52.9597 66.9752 53.1993V54.62H65.4466C65.1884 54.62 64.9797 54.8143 64.9797 55.054V57.2357C64.9797 57.4757 65.1888 57.6697 65.4466 57.6697H66.9752V59.0907C66.9752 59.3304 67.1843 59.5247 67.4421 59.5247H69.7895C70.047 59.5247 70.2567 59.3304 70.2567 59.0907V57.6697H71.7853C72.0431 57.6697 72.2529 57.4754 72.2529 57.2357V55.054C72.2529 54.8143 72.0431 54.62 71.7853 54.62ZM71.318 56.8018H69.8146C69.5438 56.8018 69.3226 57.0068 69.3226 57.2587V58.6568H67.9097V57.2587C67.9097 57.0068 67.6891 56.8018 67.4181 56.8018H65.9142V55.4883H67.4181C67.6891 55.4883 67.9097 55.2836 67.9097 55.0316V53.6336H69.3226V55.0316C69.3226 55.2836 69.5438 55.4883 69.8146 55.4883H71.318V56.8018Z" fill="white"/>
</svg>
