<svg width="1023" height="1074" viewBox="0 0 1023 1074" fill="none" xmlns="http://www.w3.org/2000/svg">
<path opacity="0.5" d="M356.018 34.6549C221.886 130.695 201.1 312.3 110.257 446.276C78.6336 492.895 37.7721 534.617 16.453 586.335C-32.492 704.713 34.8703 838.992 125.032 933.013C168.026 977.865 218.244 1018.96 279.003 1037.86C325.727 1052.4 375.827 1053.01 425.009 1053.38L1286.65 1060.96C1382.86 1061.79 1578.33 1101.32 1647.5 1037.86C1695.17 994.17 1604.84 1015.38 1621.28 954.473C1641.47 879.635 2011.92 588.279 1980.5 517C1944.61 435.448 1979.88 105.025 1923.5 34.6548C1887.71 -185.262 1591.64 118.333 1591.64 -2.83987C1537.25 -45.3195 1120.94 -53.1706 1051 -61.5C919.148 -77.2248 790.484 -110.361 661 -114.5C550.319 -118.034 447.838 -31.0965 356.018 34.6549Z" fill="#4FC139"/>
</svg>
