<svg width="174" height="178" viewBox="0 0 174 178" fill="none" xmlns="http://www.w3.org/2000/svg">
<path d="M170.259 81.0608C174.479 81.8576 174.846 87.7608 170.756 89.0732L112.352 107.814C110.45 108.424 109.255 110.303 109.509 112.284L117.312 173.123C117.859 177.383 112.358 179.555 109.846 176.071L73.9745 126.317C72.8069 124.697 70.6499 124.141 68.845 124.995L13.395 151.216C9.51201 153.052 5.74597 148.492 8.28336 145.026L44.518 95.5355C45.6975 93.9245 45.5596 91.7014 44.1901 90.2486L2.11708 45.6154C-0.829159 42.4898 2.34445 37.4988 6.42459 38.8411L64.69 58.0089C66.5865 58.6328 68.6583 57.8147 69.6168 56.0632L99.0642 2.25701C101.126 -1.51087 106.854 -0.0349027 106.838 4.26032L106.613 65.5972C106.606 67.5937 108.024 69.3112 109.986 69.6816L170.259 81.0608Z" fill="#87C27C" fill-opacity="0.8"/>
</svg>
